<svg width="48" height="48" viewBox="0 0 48 48" fill="none" xmlns="http://www.w3.org/2000/svg">
<g clip-path="url(#clip0_12_11)" filter="url(#filter0_d_12_11)">
<path opacity="0.35" d="M39.715 18.3333H37.3333H33.1897H24V24.3333H33.1897C32.5723 26.2256 31.387 27.8616 29.8353 29.0393C28.214 30.2696 26.1927 31 24 31C19.8087 31 16.2407 28.3326 14.9003 24.603C14.5333 23.5816 14.3333 22.481 14.3333 21.3333C14.3333 20.0536 14.582 18.8316 15.0337 17.714C16.4663 14.1683 19.941 11.6666 24 11.6666C26.455 11.6666 28.6943 12.5833 30.3993 14.091L34.9657 9.68765C32.1017 6.98965 28.2453 5.33331 24 5.33331C17.8593 5.33331 12.527 8.79231 9.84467 13.8683C8.66667 16.097 8 18.6373 8 21.3333C8 23.9606 8.63333 26.44 9.75567 28.6273C12.4077 33.7963 17.7907 37.3333 24 37.3333C28.1273 37.3333 31.8893 35.7706 34.7273 33.2046C37.9653 30.277 40 26.0426 40 21.3333C40 20.3073 39.8997 19.3056 39.715 18.3333Z" fill="black"/>
<path d="M9.75562 27.294C12.4076 32.463 17.7906 36 23.9999 36C28.1273 36 31.8893 34.4373 34.7273 31.8713L29.8353 27.706C28.2139 28.9363 26.1923 29.6667 23.9999 29.6667C19.8086 29.6667 16.2406 26.9993 14.9003 23.2697L9.75562 27.294Z" fill="#44BF00"/>
<path opacity="0.35" d="M29.8353 27.706C29.6073 27.8903 29.2737 28.092 29.036 28.252L33.9397 32.534C34.2087 32.3203 34.473 32.1013 34.7273 31.8713L29.8353 27.706Z" fill="black"/>
<path d="M34.7273 31.8713C37.9653 28.9433 40 24.7093 40 20C40 18.974 39.8997 17.9723 39.715 17H37.3333H33.1897H24V23H33.1897C32.5723 24.8923 31.387 26.5283 29.8353 27.706L34.7273 31.8713Z" fill="#0075FF"/>
<path opacity="0.35" d="M14.9003 23.2697L9.75562 27.294C9.91762 27.61 10.0903 27.9197 10.2726 28.223L15.3726 24.3643C15.2099 24.0603 15.0166 23.6013 14.9003 23.2697Z" fill="black"/>
<path d="M9.75567 27.294C8.63333 25.1066 8 22.6273 8 20C8 17.304 8.66667 14.7636 9.84467 12.535L15.034 16.3806C14.582 17.4986 14.3333 18.7203 14.3333 20C14.3333 21.1476 14.5333 22.2483 14.9003 23.2696L9.75567 27.294Z" fill="#FFC400"/>
<path opacity="0.35" d="M9.8447 12.535C9.68403 12.8163 9.45503 13.3216 9.32336 13.6186L14.6764 17.449C14.776 17.084 14.894 16.7266 15.0337 16.3806L9.8447 12.535Z" fill="black"/>
<path d="M15.0337 16.3807C16.4664 12.835 19.9411 10.3333 24.0001 10.3333C26.4551 10.3333 28.6944 11.25 30.3994 12.7577L34.9657 8.35433C32.1017 5.65633 28.2454 4 24.0001 4C17.8594 4 12.5271 7.459 9.84473 12.535L15.0337 16.3807Z" fill="#FF1200"/>
</g>
<defs>
<filter id="filter0_d_12_11" x="0" y="0" width="48" height="48" filterUnits="userSpaceOnUse" color-interpolation-filters="sRGB">
<feFlood flood-opacity="0" result="BackgroundImageFix"/>
<feColorMatrix in="SourceAlpha" type="matrix" values="0 0 0 0 0 0 0 0 0 0 0 0 0 0 0 0 0 0 127 0" result="hardAlpha"/>
<feOffset dy="4"/>
<feGaussianBlur stdDeviation="2"/>
<feComposite in2="hardAlpha" operator="out"/>
<feColorMatrix type="matrix" values="0 0 0 0 0 0 0 0 0 0 0 0 0 0 0 0 0 0 0.25 0"/>
<feBlend mode="normal" in2="BackgroundImageFix" result="effect1_dropShadow_12_11"/>
<feBlend mode="normal" in="SourceGraphic" in2="effect1_dropShadow_12_11" result="shape"/>
</filter>
<clipPath id="clip0_12_11">
<rect width="40" height="40" fill="white" transform="translate(4)"/>
</clipPath>
</defs>
</svg>
